<?xml version="1.0" encoding="utf-8"?>
<!-- Generator: Adobe Illustrator 23.0.6, SVG Export Plug-In . SVG Version: 6.00 Build 0)  -->
<svg version="1.1" id="Layer_1" xmlns="http://www.w3.org/2000/svg" xmlns:xlink="http://www.w3.org/1999/xlink" x="0px" y="0px"
	 viewBox="0 0 119.1 119.1" style="enable-background:new 0 0 119.1 119.1;" xml:space="preserve">
<style type="text/css">
	.st0{fill:#FF0000;}
	.st1{fill:#FFFFFF;}
</style>
<g transform="translate(-191.24 -144.1)">
	<path class="st0" d="M250.8,147.1l14.7,42.2l44.7,0.9l-35.6,27l13,42.8l-36.7-25.5l-36.7,25.5l13-42.8l-35.6-27l44.7-0.9
		L250.8,147.1z"/>
	<g transform="translate(-.5952 1.0416)">
		<path class="st1" d="M261.7,236.9l-22-33.9l-6.8,5l-5.5-7.9l13.7-8.1l13.7,0.5l-8.3,5.7l24.2,32.3"/>
		<path class="st1" d="M240.9,216.8l-1.1,4.1c0,0,7.2,3.1,11.7,1.8c4.4-1.3,10.7-4.5,13.1-9.3c2.3-4.6,2.6-10.6-0.6-15.5
			c-3.1-4.9-5.3-6.9-12.2-8.6c-6.9-1.7-15.8,1.8-15.8,1.8s5.5-6,13-6.4c7.5-0.4,12.8,2.2,17.6,6.1c8.3,6.8,9.8,16.5,6.8,25.1
			c-3.1,8.7-11.2,14.9-20.3,15.9c-8.3,0.9-15.4-3.8-15.4-3.8l-4.8,16.4l-15.6,11.1l13.1-42.6L240.9,216.8z"/>
	</g>
</g>
</svg>
