<?xml version="1.0" standalone="no"?>
<!DOCTYPE svg PUBLIC "-//W3C//DTD SVG 20010904//EN"
 "http://www.w3.org/TR/2001/REC-SVG-20010904/DTD/svg10.dtd">
<svg version="1.0" xmlns="http://www.w3.org/2000/svg"
 width="700.000000pt" height="700.000000pt" viewBox="0 0 700.000000 700.000000"
 preserveAspectRatio="xMidYMid meet">
<metadata>
Created by potrace 1.11, written by Peter Selinger 2001-2013
</metadata>
<g transform="translate(0.000000,700.000000) scale(0.100000,-0.100000)"
fill="#000000" stroke="none">
<path d="M3071 5575 l-424 -1235 -106 0 c-175 0 -2132 -40 -2329 -48 l-183 -7
333 -252 c183 -139 648 -492 1033 -783 385 -292 704 -536 708 -543 5 -7 -145
-515 -372 -1262 -209 -687 -379 -1250 -378 -1251 2 -1 1861 1289 2093 1453
l60 41 1072 -745 c590 -410 1075 -744 1077 -742 2 2 -167 566 -376 1254 -312
1025 -377 1251 -366 1260 8 5 477 361 1042 790 l1029 780 -150 6 c-82 4 -669
17 -1304 29 -899 18 -1157 25 -1165 35 -5 7 -201 562 -435 1234 -233 672 -427
1221 -430 1221 -3 0 -196 -556 -429 -1235z m615 -1040 c280 -48 562 -197 792
-419 203 -196 326 -418 379 -683 25 -130 23 -365 -6 -503 -57 -272 -174 -501
-356 -697 l-76 -82 106 -141 c58 -78 105 -144 105 -148 -1 -7 -501 -364 -519
-370 -4 -1 -59 76 -122 173 -97 150 -117 175 -134 170 -164 -48 -394 -67 -546
-46 -176 25 -347 80 -512 164 -54 27 -100 48 -102 46 -1 -2 -66 -218 -142
-479 l-139 -475 -453 -323 c-249 -178 -455 -322 -457 -320 -6 7 761 2488 770
2488 20 0 606 -223 606 -231 0 -5 -13 -58 -30 -119 -16 -61 -30 -112 -30 -115
0 -8 245 -83 321 -99 117 -24 235 -30 314 -17 39 7 77 16 84 20 18 12 -715
1145 -735 1137 -8 -3 -97 -67 -200 -142 -158 -117 -187 -135 -199 -123 -33 33
-313 445 -307 451 4 3 184 111 401 239 l394 232 391 -12 c215 -7 394 -16 397
-20 4 -3 -98 -78 -227 -166 -129 -88 -233 -165 -231 -171 3 -15 840 -1133 848
-1134 4 0 32 26 64 58 104 103 172 226 217 393 18 69 22 110 22 229 0 161 -18
248 -75 370 -84 180 -266 396 -399 473 -143 83 -386 154 -560 164 -178 10
-426 -28 -645 -98 -49 -15 -90 -27 -92 -25 -5 5 102 94 184 152 129 93 280
162 423 195 99 23 353 25 476 4z"/>
</g>
</svg>
