<?xml version="1.0" standalone="no"?>
<!DOCTYPE svg PUBLIC "-//W3C//DTD SVG 20010904//EN"
 "http://www.w3.org/TR/2001/REC-SVG-20010904/DTD/svg10.dtd">
<svg version="1.0" xmlns="http://www.w3.org/2000/svg"
 width="700.000000pt" height="700.000000pt" viewBox="0 0 700.000000 700.000000"
 preserveAspectRatio="xMidYMid meet">
<metadata>
Created by potrace 1.11, written by Peter Selinger 2001-2013
</metadata>
<g transform="translate(0.000000,700.000000) scale(0.100000,-0.100000)"
fill="#000000" stroke="none">
<path d="M3478 6789 c-9 -24 -29 -80 -43 -124 -15 -44 -63 -183 -107 -310 -44
-126 -86 -248 -93 -270 -18 -54 -113 -332 -230 -670 -53 -154 -100 -291 -105
-305 -4 -14 -54 -158 -110 -320 -56 -162 -113 -330 -127 -372 l-26 -78 -116
-1 c-64 0 -181 -2 -261 -4 -80 -1 -293 -6 -475 -10 -181 -3 -403 -8 -492 -10
-90 -2 -317 -7 -505 -10 -189 -4 -408 -9 -488 -10 -80 -2 -178 -4 -217 -4 -40
-1 -73 -4 -72 -8 0 -5 51 -45 112 -91 62 -45 167 -124 233 -175 144 -109 164
-124 263 -199 42 -32 81 -61 86 -65 6 -5 102 -78 215 -163 113 -85 207 -157
210 -160 3 -3 59 -45 125 -95 66 -49 122 -92 125 -95 3 -3 97 -75 210 -160
113 -85 210 -158 215 -162 10 -9 92 -71 155 -118 18 -14 57 -43 85 -65 l52
-40 -58 -190 c-31 -104 -81 -266 -109 -360 -29 -93 -58 -190 -65 -215 -18 -66
-204 -681 -215 -710 -5 -14 -23 -72 -40 -130 -18 -58 -45 -148 -61 -200 -15
-52 -44 -147 -63 -210 -89 -296 -138 -457 -146 -483 -9 -26 -5 -25 69 27 225
155 351 243 391 271 25 17 225 157 445 310 220 153 441 307 490 341 50 35 133
93 185 129 52 36 136 94 185 128 50 34 156 109 238 166 81 56 153 101 160 98
9 -3 1015 -700 1140 -789 9 -7 216 -151 460 -320 243 -168 447 -310 452 -315
6 -4 31 -23 57 -40 l46 -33 -8 33 c-9 37 -146 490 -159 527 -5 14 -17 52 -26
85 -9 33 -20 71 -25 85 -5 14 -21 66 -35 115 -15 50 -37 124 -50 165 -39 124
-59 191 -155 510 -50 168 -102 339 -115 380 -20 65 -67 220 -95 315 -5 17 -20
66 -34 110 -51 171 -57 195 -52 203 3 5 112 89 243 188 131 98 240 181 243
184 7 7 63 50 250 190 194 146 177 134 215 163 17 13 170 129 340 257 171 129
312 236 315 239 3 3 112 87 243 185 131 98 236 180 234 182 -1 2 -135 6 -297
9 -162 3 -380 8 -485 10 -104 2 -327 7 -495 10 -168 3 -386 8 -485 10 -99 2
-333 7 -520 10 -187 4 -341 8 -343 9 -4 5 -60 164 -227 646 -24 69 -69 197
-100 285 -31 88 -78 223 -105 300 -26 77 -85 246 -130 375 -45 129 -93 267
-106 305 -13 39 -27 77 -31 85 -3 8 -7 20 -8 25 -2 6 -37 107 -78 225 -41 118
-77 221 -79 229 -2 8 -11 -6 -20 -30z"/>
</g>
</svg>
